# xmcd CD database file
#
# Track frame offsets:
#	150
#	29077
#	47525
#	65251
#	82444
#	99651
#	117378
#	138748
#	152004
#	163931
#	185106
#	200765
#	214097
#	233210
#	252888
#
# Disc length: 3642 seconds
#
# Revision: 0
# Processed by: cddbd v1.4PL0 Copyright (c) Steve Scherf et al.
# Submitted via: CDex 1.50
#
DISCID=e80e380f
DTITLE=Hi-Fi Quintet - Hi-Fi Quintet
DYEAR=2003
DGENRE=Jazz
TTITLE0=Dansero
TTITLE1=I Only Have Eyes For You
TTITLE2=When You're Smiling
TTITLE3=No Moon At All
TTITLE4=Steamin' At Steamers
TTITLE5=Baby, It's Cold Outside
TTITLE6=My Blue Heaven
TTITLE7=If I Had You
TTITLE8=Give Me The Simple Life
TTITLE9=Dream A Little Dream
TTITLE10=Dancing On The Ceiling
TTITLE11=Petticoats of Portugal
TTITLE12=I Can't Give You Anything But Love
TTITLE13=Thou Swell
TTITLE14=Comes Love
EXTD=YEAR: 2003
EXTT0=
EXTT1=
EXTT2=
EXTT3=
EXTT4=
EXTT5=
EXTT6=
EXTT7=
EXTT8=
EXTT9=
EXTT10=
EXTT11=
EXTT12=
EXTT13=
EXTT14=
PLAYORDER=
